<svg xmlns="http://www.w3.org/2000/svg" viewBox="0 0 1080 760" width="1080" height="760" font-family="Inter, Arial, sans-serif">
<text x="420.00" y="44.00" font-size="25" font-weight="800" fill="#0F3D5C" text-anchor="middle">WEEKLY EXERCISE PYRAMID</text>
<polygon points="420.0,90.0 420.0,90.0 486.0,196.0 354.0,196.0" fill="#4B5F68" stroke="#FFFFFF" stroke-width="3"/>
<line x1="486.00" y1="143.00" x2="512.00" y2="143.00" stroke="#4B5F68" stroke-width="1.3"/>
<text x="522.00" y="139.00" font-size="15.5" font-weight="800" fill="#0F3D5C" text-anchor="start">Limit</text>
<text x="522.00" y="157.00" font-size="13" font-weight="500" fill="#4B5F68" text-anchor="start">Prolonged sitting &amp; screen time</text>
<polygon points="354.0,196.0 486.0,196.0 552.0,302.0 288.0,302.0" fill="#128074" stroke="#FFFFFF" stroke-width="3"/>
<line x1="552.00" y1="249.00" x2="578.00" y2="249.00" stroke="#4B5F68" stroke-width="1.3"/>
<text x="588.00" y="245.00" font-size="15.5" font-weight="800" fill="#0F3D5C" text-anchor="start">Flexibility &amp; mobility</text>
<text x="588.00" y="263.00" font-size="13" font-weight="500" fill="#4B5F68" text-anchor="start">2–3 days per week</text>
<polygon points="288.0,302.0 552.0,302.0 618.0,408.0 222.0,408.0" fill="#1B6CA8" stroke="#FFFFFF" stroke-width="3"/>
<line x1="618.00" y1="355.00" x2="644.00" y2="355.00" stroke="#4B5F68" stroke-width="1.3"/>
<text x="654.00" y="351.00" font-size="15.5" font-weight="800" fill="#0F3D5C" text-anchor="start">Strength training</text>
<text x="654.00" y="369.00" font-size="13" font-weight="500" fill="#4B5F68" text-anchor="start">All major muscles, 2–3 days/week</text>
<polygon points="222.0,408.0 618.0,408.0 684.0,514.0 156.0,514.0" fill="#5FA8D3" stroke="#FFFFFF" stroke-width="3"/>
<line x1="684.00" y1="461.00" x2="710.00" y2="461.00" stroke="#4B5F68" stroke-width="1.3"/>
<text x="720.00" y="457.00" font-size="15.5" font-weight="800" fill="#0F3D5C" text-anchor="start">Zone 2 cardio</text>
<text x="720.00" y="475.00" font-size="13" font-weight="500" fill="#4B5F68" text-anchor="start">150–300 min/week, most days</text>
<polygon points="156.0,514.0 684.0,514.0 750.0,620.0 90.0,620.0" fill="#BFE0F5" stroke="#FFFFFF" stroke-width="3"/>
<line x1="750.00" y1="567.00" x2="776.00" y2="567.00" stroke="#4B5F68" stroke-width="1.3"/>
<text x="786.00" y="563.00" font-size="15.5" font-weight="800" fill="#0F3D5C" text-anchor="start">Move more, sit less</text>
<text x="786.00" y="581.00" font-size="13" font-weight="500" fill="#4B5F68" text-anchor="start">Every day — walk, take the stairs</text>
<rect x="70.00" y="646.00" width="700.00" height="54.00" rx="10" fill="#E8F2FA"/>
<text x="420.00" y="670.00" font-size="14" font-weight="700" fill="#0F3D5C" text-anchor="middle">Any movement counts — start small and build the habit</text>
</svg>
