<svg xmlns="http://www.w3.org/2000/svg" viewBox="0 0 900 528" width="900" height="528" font-family="Inter, Arial, sans-serif">
<text x="450.00" y="42.00" font-size="22" font-weight="800" fill="#0F3D5C" text-anchor="middle">FIBER AT A GLANCE</text>
<text x="284.00" y="108.00" font-size="14.5" font-weight="700" fill="#1C2B33" text-anchor="end">Split peas</text>
<text x="284.00" y="124.00" font-size="11.5" font-weight="500" fill="#4B5F68" text-anchor="end">1 cup, cooked</text>
<rect x="300.00" y="92.00" width="480.00" height="22.00" rx="5" fill="#EEF3F5"/>
<rect x="300.00" y="92.00" width="480.00" height="22.00" rx="5" fill="#1E9E6B"/>
<text x="790.00" y="108.00" font-size="13.5" font-weight="800" fill="#1C2B33" text-anchor="start">16g fiber</text>
<text x="284.00" y="154.00" font-size="14.5" font-weight="700" fill="#1C2B33" text-anchor="end">Lentils</text>
<text x="284.00" y="170.00" font-size="11.5" font-weight="500" fill="#4B5F68" text-anchor="end">1 cup, cooked</text>
<rect x="300.00" y="138.00" width="480.00" height="22.00" rx="5" fill="#EEF3F5"/>
<rect x="300.00" y="138.00" width="450.00" height="22.00" rx="5" fill="#1E9E6B"/>
<text x="760.00" y="154.00" font-size="13.5" font-weight="800" fill="#1C2B33" text-anchor="start">15g fiber</text>
<text x="284.00" y="200.00" font-size="14.5" font-weight="700" fill="#1C2B33" text-anchor="end">Black beans</text>
<text x="284.00" y="216.00" font-size="11.5" font-weight="500" fill="#4B5F68" text-anchor="end">1 cup, cooked</text>
<rect x="300.00" y="184.00" width="480.00" height="22.00" rx="5" fill="#EEF3F5"/>
<rect x="300.00" y="184.00" width="450.00" height="22.00" rx="5" fill="#1E9E6B"/>
<text x="760.00" y="200.00" font-size="13.5" font-weight="800" fill="#1C2B33" text-anchor="start">15g fiber</text>
<text x="284.00" y="246.00" font-size="14.5" font-weight="700" fill="#1C2B33" text-anchor="end">Raspberries</text>
<text x="284.00" y="262.00" font-size="11.5" font-weight="500" fill="#4B5F68" text-anchor="end">1 cup</text>
<rect x="300.00" y="230.00" width="480.00" height="22.00" rx="5" fill="#EEF3F5"/>
<rect x="300.00" y="230.00" width="240.00" height="22.00" rx="5" fill="#1E9E6B"/>
<text x="550.00" y="246.00" font-size="13.5" font-weight="800" fill="#1C2B33" text-anchor="start">8g fiber</text>
<text x="284.00" y="292.00" font-size="14.5" font-weight="700" fill="#1C2B33" text-anchor="end">Avocado</text>
<text x="284.00" y="308.00" font-size="11.5" font-weight="500" fill="#4B5F68" text-anchor="end">1 whole</text>
<rect x="300.00" y="276.00" width="480.00" height="22.00" rx="5" fill="#EEF3F5"/>
<rect x="300.00" y="276.00" width="300.00" height="22.00" rx="5" fill="#1E9E6B"/>
<text x="610.00" y="292.00" font-size="13.5" font-weight="800" fill="#1C2B33" text-anchor="start">10g fiber</text>
<text x="284.00" y="338.00" font-size="14.5" font-weight="700" fill="#1C2B33" text-anchor="end">Chia seeds</text>
<text x="284.00" y="354.00" font-size="11.5" font-weight="500" fill="#4B5F68" text-anchor="end">1 oz (2 tbsp)</text>
<rect x="300.00" y="322.00" width="480.00" height="22.00" rx="5" fill="#EEF3F5"/>
<rect x="300.00" y="322.00" width="300.00" height="22.00" rx="5" fill="#1E9E6B"/>
<text x="610.00" y="338.00" font-size="13.5" font-weight="800" fill="#1C2B33" text-anchor="start">10g fiber</text>
<text x="284.00" y="384.00" font-size="14.5" font-weight="700" fill="#1C2B33" text-anchor="end">Pear</text>
<text x="284.00" y="400.00" font-size="11.5" font-weight="500" fill="#4B5F68" text-anchor="end">1 medium, with skin</text>
<rect x="300.00" y="368.00" width="480.00" height="22.00" rx="5" fill="#EEF3F5"/>
<rect x="300.00" y="368.00" width="180.00" height="22.00" rx="5" fill="#1E9E6B"/>
<text x="490.00" y="384.00" font-size="13.5" font-weight="800" fill="#1C2B33" text-anchor="start">6g fiber</text>
<text x="284.00" y="430.00" font-size="14.5" font-weight="700" fill="#1C2B33" text-anchor="end">Broccoli</text>
<text x="284.00" y="446.00" font-size="11.5" font-weight="500" fill="#4B5F68" text-anchor="end">1 cup, cooked</text>
<rect x="300.00" y="414.00" width="480.00" height="22.00" rx="5" fill="#EEF3F5"/>
<rect x="300.00" y="414.00" width="150.00" height="22.00" rx="5" fill="#1E9E6B"/>
<text x="460.00" y="430.00" font-size="13.5" font-weight="800" fill="#1C2B33" text-anchor="start">5g fiber</text>
<rect x="60.00" y="472.00" width="780.00" height="46.00" rx="8" fill="#E6F6F0"/>
<text x="76.00" y="500.00" font-size="13" font-weight="600" fill="#1C2B33" text-anchor="start">Most adults need 25–38g of fiber a day — only about 5% of Americans get enough.</text>
</svg>
